<?xml version="1.0" encoding="UTF-8" standalone="no"?>
<!DOCTYPE svg PUBLIC "-//W3C//DTD SVG 1.1//EN" "http://www.w3.org/Graphics/SVG/1.1/DTD/svg11.dtd">
<svg version="1.1" xmlns="http://www.w3.org/2000/svg" xmlns:xlink="http://www.w3.org/1999/xlink" preserveAspectRatio="xMidYMid meet" viewBox="0 0 300 300" width="200" height="200">
    <path opacity="1" fill-opacity="0" stroke="white" stroke-width="40" stroke-opacity="1" d="M261.5 150C261.5 211.81 211.54 262 150 262C88.46 262 38.5 211.81 38.5 150C38.5 88.19 88.46 38 150 38C211.54 38 261.5 88.19 261.5 150Z" id="bfVAyTjv"></path>
    <path opacity="1" fill="white" fill-opacity="1" d="M153.77 85.98L155.63 86.16L157.46 86.42L159.27 86.75L161.05 87.14L162.81 87.6L164.54 88.13L166.24 88.72L167.91 89.38L169.54 90.09L171.14 90.87L172.7 91.7L174.23 92.6L175.72 93.54L177.17 94.54L178.57 95.6L179.94 96.7L181.25 97.85L182.53 99.06L183.75 100.3L184.93 101.6L186.05 102.94L187.12 104.32L188.14 105.74L189.11 107.2L190.02 108.7L190.87 110.23L191.66 111.81L192.39 113.41L193.05 115.05L193.65 116.71L194.19 118.41L194.66 120.13L195.07 121.89L195.4 123.66L195.66 125.46L195.85 127.28L195.96 129.13L196 130.99L195.96 132.85L195.85 134.69L195.66 136.53L195.4 138.35L195.07 140.16L194.66 141.97L194.19 143.77L193.65 145.56L193.05 147.36L192.39 149.16L191.66 150.96L190.87 152.77L190.02 154.58L189.11 156.4L188.14 158.24L187.12 160.09L186.05 161.96L184.93 163.84L183.75 165.74L182.53 167.67L181.25 169.62L179.94 171.6L178.57 173.61L177.17 175.64L175.72 177.72L174.23 179.82L172.7 181.96L171.14 184.15L169.54 186.37L167.91 188.64L166.24 190.95L164.54 193.31L162.81 195.72L161.05 198.18L159.27 200.7L157.46 203.27L155.63 205.91L153.77 208.6L151.9 211.35L150 214.17L148.1 211.35L146.23 208.6L144.37 205.91L142.54 203.27L140.73 200.7L138.95 198.18L137.19 195.72L135.46 193.31L133.76 190.95L132.09 188.64L130.46 186.37L128.86 184.15L127.3 181.96L125.77 179.82L124.28 177.72L122.83 175.64L121.43 173.61L120.06 171.6L118.75 169.62L117.47 167.67L116.25 165.74L115.07 163.84L113.95 161.96L112.88 160.09L111.86 158.24L110.89 156.4L109.98 154.58L109.13 152.77L108.34 150.96L107.61 149.16L106.95 147.36L106.35 145.56L105.81 143.77L105.34 141.97L104.93 140.16L104.6 138.35L104.34 136.53L104.15 134.69L104.04 132.85L104 130.99L104.04 129.13L104.15 127.28L104.34 125.46L104.6 123.66L104.93 121.89L105.34 120.13L105.81 118.41L106.35 116.71L106.95 115.05L107.61 113.41L108.34 111.81L109.13 110.23L109.98 108.7L110.89 107.2L111.86 105.74L112.88 104.32L113.95 102.94L115.07 101.6L116.25 100.3L117.47 99.06L118.75 97.85L120.06 96.7L121.43 95.6L122.83 94.54L124.28 93.54L125.77 92.6L127.3 91.7L128.86 90.87L130.46 90.09L132.09 89.38L133.76 88.72L135.46 88.13L137.19 87.6L138.95 87.14L140.73 86.75L142.54 86.42L144.37 86.16L146.23 85.98L148.1 85.87L150 85.83L151.9 85.87L153.77 85.98ZM148.21 107.29L147.33 107.38L146.47 107.5L145.61 107.65L144.76 107.84L143.93 108.06L143.11 108.31L142.31 108.59L141.52 108.9L140.74 109.24L139.99 109.61L139.25 110L138.52 110.42L137.82 110.87L137.13 111.35L136.47 111.85L135.82 112.37L135.2 112.92L134.59 113.48L134.01 114.08L133.46 114.69L132.92 115.32L132.41 115.98L131.93 116.65L131.48 117.34L131.05 118.05L130.64 118.78L130.27 119.52L129.92 120.28L129.61 121.06L129.32 121.85L129.07 122.65L128.84 123.47L128.65 124.3L128.5 125.14L128.37 125.99L128.28 126.86L128.23 127.73L128.21 128.61L128.23 129.49L128.28 130.36L128.37 131.23L128.5 132.08L128.65 132.92L128.84 133.75L129.07 134.57L129.32 135.37L129.61 136.16L129.92 136.94L130.27 137.7L130.64 138.44L131.05 139.17L131.48 139.88L131.93 140.57L132.41 141.24L132.92 141.9L133.46 142.53L134.01 143.14L134.59 143.74L135.2 144.3L135.82 144.85L136.47 145.37L137.13 145.87L137.82 146.35L138.52 146.8L139.25 147.22L139.99 147.61L140.74 147.98L141.52 148.32L142.31 148.63L143.11 148.91L143.93 149.16L144.76 149.38L145.61 149.57L146.47 149.72L147.33 149.84L148.21 149.93L149.1 149.98L150 150L150.9 149.98L151.79 149.93L152.67 149.84L153.53 149.72L154.39 149.57L155.24 149.38L156.07 149.16L156.89 148.91L157.69 148.63L158.48 148.32L159.26 147.98L160.01 147.61L160.75 147.22L161.48 146.8L162.18 146.35L162.87 145.87L163.53 145.37L164.18 144.85L164.8 144.3L165.41 143.74L165.99 143.14L166.54 142.53L167.08 141.9L167.59 141.24L168.07 140.57L168.52 139.88L168.95 139.17L169.36 138.44L169.73 137.7L170.08 136.94L170.39 136.16L170.68 135.37L170.93 134.57L171.16 133.75L171.35 132.92L171.5 132.08L171.63 131.23L171.72 130.36L171.77 129.49L171.79 128.61L171.77 127.73L171.72 126.86L171.63 125.99L171.5 125.14L171.35 124.3L171.16 123.47L170.93 122.65L170.68 121.85L170.39 121.06L170.08 120.28L169.73 119.52L169.36 118.78L168.95 118.05L168.52 117.34L168.07 116.65L167.59 115.98L167.08 115.32L166.54 114.69L165.99 114.08L165.41 113.48L164.8 112.92L164.18 112.37L163.53 111.85L162.87 111.35L162.18 110.87L161.48 110.42L160.75 110L160.01 109.61L159.26 109.24L158.48 108.9L157.69 108.59L156.89 108.31L156.07 108.06L155.24 107.84L154.39 107.65L153.53 107.5L152.67 107.38L151.79 107.29L150.9 107.24L150 107.22L149.1 107.24L148.21 107.29Z" id="avBDM7LI"></path>
</svg>
